Genre:Comedy
Language:English
IMDb:http://www.imdb.com/title/tt1284575/
Source:BluRay-CHD Thanks!

Format                           : MPEG-4
Format profile                   : Base Media
Codec ID                         : isom
File size                        : 2.27 GiB
Duration                         : 1h 37mn
Overall bit rate                 : 3 331 Kbps

Video
ID                               : 1
Format                           : AVC
Format/Info                      : Advanced Video Codec
Format profile                   : High@L4.1
Format settings, CABAC           : Yes
Format settings, ReFrames        : 3 frames
Codec ID                         : avc1
Codec ID/Info                    : Advanced Video Coding
Duration                         : 1h 37mn
Bit rate mode                    : Variable
Bit rate                         : 3 000 Kbps
Maximum bit rate                 : 21.4 Mbps
Width                            : 1 280 pixels
Height                           : 688 pixels
Display aspect ratio             : 1.860
Frame rate mode                  : Constant
Frame rate                       : 23.976 fps
Color space                      : YUV
Chroma subsampling               : 4:2:0
Bit depth                        : 8 bits
Scan type                        : Progressive
Bits/(Pixel*Frame)               : 0.142
Stream size                      : 2.01 GiB (89%)
Writing library                  : x264

Audio
ID                               : 2
Format                           : AAC
Format/Info                      : Advanced Audio Codec
Format version                   : Version 4
Format profile                   : LC
Format settings, SBR             : No
Codec ID                         : 40
Duration                         : 1h 37mn
Bit rate mode                    : Variable
Bit rate                         : 373 Kbps
Maximum bit rate                 : 506 Kbps
Channel(s)                       : 6 channels
Channel positions                : Front: L C R, Side: L R, LFE
Sampling rate                    : 48.0 KHz
Stream size                      : 260 MiB (11%)

     
Plot:
  A comedy centered around a foul-mouthed, junior high teacher who, after being dumped by her sugar daddy, begins to woo a colleague -- a move that pits her against a well-loved teacher


 
http://www.pix2links.com/images/36883429044561692948.png 
http://www.pix2links.com/images/07338355460122012309.png 
http://www.pix2links.com/images/38446345827422922247.png 
http://www.pix2links.com/images/09596616509660498902.png 
http://www.pix2links.com/images/14934549565974980826.png


Greets:

INK,CRYS,IMAGINE,LKRG,FXG,3Li,FLAWL3SS,TA,iLLUSiON,ViSiON,DTRG SAFCuk009,LU,TheFalcon007,MYSTiC,PrisM,Noir,WBZ,LAP,Rx,Kingdom,SAFCuk009+Fabreezy,HDLiTE,TWiZTED,ETRG.ELEKTRI4KA,MAGNAT,CM8
                And to all the other p2p grps past and present 
 



Make sure its a real Feel-Free release @

Thanks to all who promotes release Feel-Free !!!